<svg xmlns="http://www.w3.org/2000/svg" width="16" height="15" viewBox="0 0 16 15" fill="none"><path d="M12.059 2.8a5.441 5.441 0 0 0-3.814-1.553c-1.43 0-2.803.559-3.815 1.553a5.258 5.258 0 0 0-1.58 3.75 5.26 5.26 0 0 0 1.58 3.75l3.35 3.3a.637.637 0 0 0 .696.137.637.637 0 0 0 .207-.137l3.376-3.33a5.236 5.236 0 0 0 1.573-3.735c0-1.4-.566-2.744-1.573-3.735Zm-.91 6.575-2.904 2.87-2.905-2.87a4.017 4.017 0 0 1-1.123-2.067 3.974 3.974 0 0 1 .234-2.332 4.053 4.053 0 0 1 1.513-1.812 4.157 4.157 0 0 1 2.28-.68 4.16 4.16 0 0 1 2.282.68 4.053 4.053 0 0 1 1.512 1.812c.311.737.393 1.549.235 2.332a4.017 4.017 0 0 1-1.123 2.067Zm-4.81-4.743a2.677 2.677 0 0 0-.802 1.906c0 .715.288 1.4.802 1.906.38.376.866.632 1.395.737a2.784 2.784 0 0 0 1.578-.146c.5-.2.928-.54 1.231-.98.304-.438.469-.955.474-1.486a2.612 2.612 0 0 0-.204-1.033 2.647 2.647 0 0 0-.597-.873 2.736 2.736 0 0 0-.884-.594 2.774 2.774 0 0 0-2.993.563ZM9.32 7.557a1.501 1.501 0 0 1-1.872.193 1.459 1.459 0 0 1-.599-.787c-.1-.323-.085-.67.046-.982.13-.312.367-.57.67-.73a1.504 1.504 0 0 1 1.846.36c.217.262.336.59.335.927-.01.386-.174.752-.458 1.019h.032Z" fill="#2A3D53"/></svg>