<svg xmlns="http://www.w3.org/2000/svg" width="16" height="15" viewBox="0 0 16 15" fill="none"><path d="M13.008 8.125c-.14 0-.286-.044-.426-.075a6.077 6.077 0 0 1-.832-.244 1.29 1.29 0 0 0-.91.015 1.263 1.263 0 0 0-.667.61l-.14.281a7.732 7.732 0 0 1-1.69-1.25A7.625 7.625 0 0 1 7.07 5.8l.267-.175a1.26 1.26 0 0 0 .62-.656 1.23 1.23 0 0 0 .016-.894 6.345 6.345 0 0 1-.248-.82 4.564 4.564 0 0 1-.077-.424 1.868 1.868 0 0 0-.661-1.124 1.927 1.927 0 0 0-1.246-.432H3.835a1.935 1.935 0 0 0-1.45.636 1.866 1.866 0 0 0-.457 1.495 11.8 11.8 0 0 0 3.457 6.914 12.16 12.16 0 0 0 7.045 3.373h.241c.47.001.922-.168 1.272-.475a1.878 1.878 0 0 0 .636-1.406V9.937a1.857 1.857 0 0 0-.455-1.183 1.915 1.915 0 0 0-1.116-.63Zm.318 3.75a.615.615 0 0 1-.216.468.673.673 0 0 1-.521.157 10.88 10.88 0 0 1-6.286-3.044 10.556 10.556 0 0 1-3.065-6.194.67.67 0 0 1 .159-.512.635.635 0 0 1 .476-.213H5.78a.643.643 0 0 1 .409.135c.116.09.196.217.227.359a6.861 6.861 0 0 0 .388 1.475l-.89.406a.635.635 0 0 0-.332.352.615.615 0 0 0 .02.48 9.136 9.136 0 0 0 4.45 4.374.646.646 0 0 0 .484 0 .639.639 0 0 0 .362-.325l.394-.875c.329.116.664.212 1.004.288.17.037.341.069.515.094a.64.64 0 0 1 .366.223c.091.114.14.256.136.402l.013 1.95Z" fill="#2A3D53"/></svg>