<svg xmlns="http://www.w3.org/2000/svg" width="16" height="15" viewBox="0 0 16 15" fill="none"><path d="M7.643 1.25a6.435 6.435 0 0 0-3.532 1.053A6.274 6.274 0 0 0 1.77 5.108a6.152 6.152 0 0 0-.362 3.611 6.218 6.218 0 0 0 1.74 3.2 6.39 6.39 0 0 0 3.255 1.71 6.457 6.457 0 0 0 3.673-.355 6.334 6.334 0 0 0 2.853-2.302 6.16 6.16 0 0 0 .587-5.864 6.243 6.243 0 0 0-1.378-2.027 6.365 6.365 0 0 0-2.062-1.355 6.452 6.452 0 0 0-2.433-.476Zm0 11.25a5.147 5.147 0 0 1-2.825-.843 5.02 5.02 0 0 1-1.873-2.244 4.922 4.922 0 0 1-.29-2.888c.196-.97.68-1.861 1.392-2.56a5.113 5.113 0 0 1 2.604-1.369 5.167 5.167 0 0 1 2.938.285 5.068 5.068 0 0 1 2.283 1.841 4.94 4.94 0 0 1 .857 2.778 4.957 4.957 0 0 1-1.49 3.536A5.13 5.13 0 0 1 7.643 12.5Zm0-8.75a.641.641 0 0 0-.45.183.62.62 0 0 0-.186.442v2.763l-1.335.756a.615.615 0 0 0-.072 1.04.643.643 0 0 0 .39.129.644.644 0 0 0 .318-.082l1.653-.937.057-.057.102-.08a.536.536 0 0 0 .064-.1.552.552 0 0 0 .05-.107.4.4 0 0 0 .032-.125L8.28 7.5V4.375a.62.62 0 0 0-.186-.442.641.641 0 0 0-.45-.183Z" fill="#2A3D53"/></svg>